<svg xmlns="http://www.w3.org/2000/svg" viewBox="0 0 40 40" fill="none">
  <defs>
    <linearGradient id="g" x1="2" y1="6" x2="38" y2="34" gradientUnits="userSpaceOnUse">
      <stop stop-color="#FF5A1F"/>
      <stop offset="0.28" stop-color="#F5C542"/>
      <stop offset="0.52" stop-color="#2DD4BF"/>
      <stop offset="0.72" stop-color="#22D3EE"/>
      <stop offset="0.88" stop-color="#6366F1"/>
      <stop offset="1" stop-color="#A855F7"/>
    </linearGradient>
  </defs>
  <path d="M8 10.5C8 7.462 10.462 5 13.5 5H26.5C29.538 5 32 7.462 32 10.5V22.5C32 25.538 29.538 28 26.5 28H18.2L12.8 33.2C12.05 33.92 10.8 33.39 10.8 32.35V28H13.5C10.462 28 8 25.538 8 22.5V10.5Z" fill="url(#g)"/>
  <g stroke="#fff" stroke-width="1.6" stroke-linecap="round" stroke-linejoin="round">
    <circle cx="15.5" cy="14" r="1.4" fill="#fff" stroke="none"/>
    <circle cx="22" cy="12.5" r="1.4" fill="#fff" stroke="none"/>
    <circle cx="26.5" cy="17.5" r="1.4" fill="#fff" stroke="none"/>
    <circle cx="20" cy="20.5" r="1.4" fill="#fff" stroke="none"/>
    <circle cx="14.5" cy="20" r="1.4" fill="#fff" stroke="none"/>
    <path d="M15.5 14L22 12.5M22 12.5L26.5 17.5M26.5 17.5L20 20.5M20 20.5L14.5 20M14.5 20L15.5 14M15.5 14L20 20.5"/>
  </g>
</svg>
